<svg width="1115" height="224" viewBox="0 0 1115 224" fill="none" xmlns="http://www.w3.org/2000/svg">
<path d="M130.625 75.3125C130.625 96.125 123.5 112.156 109.25 123.406C95.0938 134.562 74.7969 140.141 48.3594 140.141H24.1719V221H0.265625V15.4062H53.5625C104.938 15.4062 130.625 35.375 130.625 75.3125ZM24.1719 119.609H45.6875C66.875 119.609 82.2031 116.188 91.6719 109.344C101.141 102.5 105.875 91.5312 105.875 76.4375C105.875 62.8438 101.422 52.7188 92.5156 46.0625C83.6094 39.4062 69.7344 36.0781 50.8906 36.0781H24.1719V119.609Z" fill="white"/>
<path d="M303.312 143.797C303.312 168.922 296.984 188.562 284.328 202.719C271.672 216.781 254.188 223.812 231.875 223.812C218.094 223.812 205.859 220.578 195.172 214.109C184.484 207.641 176.234 198.359 170.422 186.266C164.609 174.172 161.703 160.016 161.703 143.797C161.703 118.672 167.984 99.125 180.547 85.1562C193.109 71.0938 210.547 64.0625 232.859 64.0625C254.422 64.0625 271.531 71.2344 284.188 85.5781C296.938 99.9219 303.312 119.328 303.312 143.797ZM185.891 143.797C185.891 163.484 189.828 178.484 197.703 188.797C205.578 199.109 217.156 204.266 232.438 204.266C247.719 204.266 259.297 199.156 267.172 188.938C275.141 178.625 279.125 163.578 279.125 143.797C279.125 124.203 275.141 109.344 267.172 99.2188C259.297 89 247.625 83.8906 232.156 83.8906C216.875 83.8906 205.344 88.9062 197.562 98.9375C189.781 108.969 185.891 123.922 185.891 143.797Z" fill="white"/>
<path d="M414.688 64.0625C421.531 64.0625 427.672 64.625 433.109 65.75L429.875 87.4062C423.5 86 417.875 85.2969 413 85.2969C400.531 85.2969 389.844 90.3594 380.938 100.484C372.125 110.609 367.719 123.219 367.719 138.312V221H344.375V66.875H363.641L366.312 95.4219H367.438C373.156 85.3906 380.047 77.6562 388.109 72.2188C396.172 66.7812 405.031 64.0625 414.688 64.0625Z" fill="white"/>
<path d="M511.719 204.547C515.844 204.547 519.828 204.266 523.672 203.703C527.516 203.047 530.562 202.391 532.812 201.734V219.594C530.281 220.812 526.531 221.797 521.562 222.547C516.688 223.391 512.281 223.812 508.344 223.812C478.531 223.812 463.625 208.109 463.625 176.703V85.0156H441.547V73.7656L463.625 64.0625L473.469 31.1562H486.969V66.875H531.688V85.0156H486.969V175.719C486.969 185 489.172 192.125 493.578 197.094C497.984 202.062 504.031 204.547 511.719 204.547Z" fill="white"/>
<path d="M633.219 85.0156H593.984V221H570.641V85.0156H543.078V74.4688L570.641 66.0312V57.4531C570.641 19.5781 587.188 0.640625 620.281 0.640625C628.438 0.640625 638 2.28125 648.969 5.5625L642.922 24.2656C633.922 21.3594 626.234 19.9062 619.859 19.9062C611.047 19.9062 604.531 22.8594 600.312 28.7656C596.094 34.5781 593.984 43.9531 593.984 56.8906V66.875H633.219V85.0156Z" fill="white"/>
<path d="M794.375 143.797C794.375 168.922 788.047 188.562 775.391 202.719C762.734 216.781 745.25 223.812 722.938 223.812C709.156 223.812 696.922 220.578 686.234 214.109C675.547 207.641 667.297 198.359 661.484 186.266C655.672 174.172 652.766 160.016 652.766 143.797C652.766 118.672 659.047 99.125 671.609 85.1562C684.172 71.0938 701.609 64.0625 723.922 64.0625C745.484 64.0625 762.594 71.2344 775.25 85.5781C788 99.9219 794.375 119.328 794.375 143.797ZM676.953 143.797C676.953 163.484 680.891 178.484 688.766 188.797C696.641 199.109 708.219 204.266 723.5 204.266C738.781 204.266 750.359 199.156 758.234 188.938C766.203 178.625 770.188 163.578 770.188 143.797C770.188 124.203 766.203 109.344 758.234 99.2188C750.359 89 738.688 83.8906 723.219 83.8906C707.938 83.8906 696.406 88.9062 688.625 98.9375C680.844 108.969 676.953 123.922 676.953 143.797Z" fill="white"/>
<path d="M858.781 221H835.438V2.1875H858.781V221Z" fill="white"/>
<path d="M931.625 221H908.281V66.875H931.625V221ZM906.312 25.1094C906.312 19.7656 907.625 15.875 910.25 13.4375C912.875 10.9062 916.156 9.64062 920.094 9.64062C923.844 9.64062 927.078 10.9062 929.797 13.4375C932.516 15.9688 933.875 19.8594 933.875 25.1094C933.875 30.3594 932.516 34.2969 929.797 36.9219C927.078 39.4531 923.844 40.7188 920.094 40.7188C916.156 40.7188 912.875 39.4531 910.25 36.9219C907.625 34.2969 906.312 30.3594 906.312 25.1094Z" fill="white"/>
<path d="M1114.16 143.797C1114.16 168.922 1107.83 188.562 1095.17 202.719C1082.52 216.781 1065.03 223.812 1042.72 223.812C1028.94 223.812 1016.7 220.578 1006.02 214.109C995.328 207.641 987.078 198.359 981.266 186.266C975.453 174.172 972.547 160.016 972.547 143.797C972.547 118.672 978.828 99.125 991.391 85.1562C1003.95 71.0938 1021.39 64.0625 1043.7 64.0625C1065.27 64.0625 1082.38 71.2344 1095.03 85.5781C1107.78 99.9219 1114.16 119.328 1114.16 143.797ZM996.734 143.797C996.734 163.484 1000.67 178.484 1008.55 188.797C1016.42 199.109 1028 204.266 1043.28 204.266C1058.56 204.266 1070.14 199.156 1078.02 188.938C1085.98 178.625 1089.97 163.578 1089.97 143.797C1089.97 124.203 1085.98 109.344 1078.02 99.2188C1070.14 89 1058.47 83.8906 1043 83.8906C1027.72 83.8906 1016.19 88.9062 1008.41 98.9375C1000.62 108.969 996.734 123.922 996.734 143.797Z" fill="white"/>
</svg>
